<svg xmlns="http://www.w3.org/2000/svg" width="290.511" height="44.64" viewBox="0 0 290.511 44.64">
  <g id="AlyansGroup-black" transform="translate(0)">
    <path id="Path_220" data-name="Path 220" d="M180.54,33.86a16.29,16.29,0,0,1-8.25-2,14.78,14.78,0,0,1-5.64-5.62,16.32,16.32,0,0,1-2.06-8.28,17,17,0,0,1,2-8.42,15,15,0,0,1,5.61-5.78,16,16,0,0,1,8.26-2.1,15.34,15.34,0,0,1,7.07,1.59,16.84,16.84,0,0,1,5.36,4.23l-.81.72a15.24,15.24,0,0,0-19.3-3.57A14.27,14.27,0,0,0,167.54,10a15.93,15.93,0,0,0-1.92,7.88,15.26,15.26,0,0,0,1.94,7.73A14.12,14.12,0,0,0,172.85,31a16.64,16.64,0,0,0,15.2.17,11.52,11.52,0,0,0,4.7-4.88A15.81,15.81,0,0,0,194.36,19v-.63H181v-1h14.46v.86q0,7.65-4,11.64T180.54,33.86Z" fill="#474747"/>
    <path id="Path_221" data-name="Path 221" d="M199.12,33.86V9.92H200l.05,4.93a7.84,7.84,0,0,1,2.66-3.58,7.76,7.76,0,0,1,5.06-1.59,8.67,8.67,0,0,1,2.68.36l-.32,1.05a10,10,0,0,0-1.42-.32,7.68,7.68,0,0,0-1.17-.09,6.78,6.78,0,0,0-4.16,1.25A7.83,7.83,0,0,0,200.94,15a8.34,8.34,0,0,0-.8,3.44V33.86Z" fill="#474747"/>
    <path id="Path_222" data-name="Path 222" d="M221.75,33.86a13.17,13.17,0,0,1-6.5-1.56,11.35,11.35,0,0,1-4.4-4.35,12.54,12.54,0,0,1-1.58-6.31,12.13,12.13,0,0,1,1.58-6.2,11.12,11.12,0,0,1,4.4-4.23,14.57,14.57,0,0,1,13,0,10.87,10.87,0,0,1,4.38,4.23,12.22,12.22,0,0,1,1.56,6.2A12.65,12.65,0,0,1,232.63,28a11.17,11.17,0,0,1-4.38,4.35,13.12,13.12,0,0,1-6.5,1.56Zm0-1a11.77,11.77,0,0,0,5.87-1.44,10.54,10.54,0,0,0,4.07-4,11.3,11.3,0,0,0,1.49-5.82,10.65,10.65,0,0,0-1.5-5.64,10.88,10.88,0,0,0-4.06-3.91,12.77,12.77,0,0,0-11.78,0,10.63,10.63,0,0,0-5.56,9.55,11.4,11.4,0,0,0,1.49,5.82,10.54,10.54,0,0,0,4.07,4,12,12,0,0,0,5.92,1.44Z" fill="#474747"/>
    <path id="Path_223" data-name="Path 223" d="M246.6,33.87a9,9,0,0,1-6.49-2.22q-2.28-2.22-2.29-7.15V9.68h1V24.5c0,3,.68,5.09,2,6.4a8,8,0,0,0,5.82,2,7.69,7.69,0,0,0,3.17-.68,10.72,10.72,0,0,0,2.66-1.69,9.87,9.87,0,0,0,1.82-2.05,3.52,3.52,0,0,0,.64-1.77v-17h1v23.7h-.92L255,28.8a9.45,9.45,0,0,1-8.37,5.07Z" fill="#474747"/>
    <path id="Path_224" data-name="Path 224" d="M259.62,44.64V9.74h.92l.1,7a11,11,0,0,1,3.86-5.24,10,10,0,0,1,6.12-2,11.49,11.49,0,0,1,6.05,1.62,11.24,11.24,0,0,1,4.18,4.39,14.21,14.21,0,0,1,0,12.9,12.11,12.11,0,0,1-4.18,4.44,10.78,10.78,0,0,1-5.8,1.61,10.52,10.52,0,0,1-4.35-.92A11.17,11.17,0,0,1,262.86,31a9.27,9.27,0,0,1-2.2-3.72V44.64Zm11.14-11.18a10.36,10.36,0,0,0,5.5-1.48A10.17,10.17,0,0,0,280,27.89a12.94,12.94,0,0,0,1.34-6A12.31,12.31,0,0,0,280,16.06a10.18,10.18,0,0,0-3.74-4,10.5,10.5,0,0,0-5.6-1.48A9.33,9.33,0,0,0,265.55,12a10.08,10.08,0,0,0-3.6,4,14,14,0,0,0,0,11.88,10.4,10.4,0,0,0,3.6,4.07,9.39,9.39,0,0,0,5.2,1.48Z" fill="#474747"/>
    <path id="Path_472" data-name="Path 472" d="M283.15,32.91v-.2h1.06V26.83l-1.21.81-.05-.18,1.36-.94h.09v6.19h1.06v.2Z" fill="#474747"/>
    <path id="Path_473" data-name="Path 473" d="M288.44,32.91h0l1.72-3.1a2.18,2.18,0,0,1-.75.71,1.79,1.79,0,0,1-.91.23,2.038,2.038,0,0,1-1.74-1.03,2.1,2.1,0,0,1-.27-1.07,2.05,2.05,0,0,1,.27-1.05,2.16,2.16,0,0,1,.74-.76,2.007,2.007,0,0,1,2.74.74,2.149,2.149,0,0,1,.27,1.09,3,3,0,0,1-.27,1.24,12.219,12.219,0,0,1-.62,1.26l-1,1.79Zm0-2.41a1.76,1.76,0,0,0,.94-.25,1.93,1.93,0,0,0,.67-.69,2,2,0,0,0,.25-1,1.91,1.91,0,0,0-.25-1,1.87,1.87,0,0,0-.67-.67,1.77,1.77,0,0,0-.94-.26,1.69,1.69,0,0,0-.91.26,1.73,1.73,0,0,0-.66.68,2,2,0,0,0-.25,1,1.91,1.91,0,0,0,.25,1,1.8,1.8,0,0,0,.66.68,1.68,1.68,0,0,0,.92.25Z" fill="#474747"/>
    <path id="Path_214" data-name="Path 214" d="M71.1,44.47l4.12-10L64,9.68h4l8.27,18.49c.13.27.25.57.38.9s.24.65.36,1l.3-.76q.17-.4.3-.81L84.79,9.68H88.7L79.06,33.87,74.9,44.5Z" fill="#474747"/>
    <path id="Path_215" data-name="Path 215" d="M99.89,33.87a10.3,10.3,0,0,1-5.68-1.64,11.54,11.54,0,0,1-4-4.49,15.18,15.18,0,0,1,0-13,11.6,11.6,0,0,1,4.2-4.4,10.6,10.6,0,0,1,5.77-1.61,10.06,10.06,0,0,1,5.2,1.34,9.23,9.23,0,0,1,3.49,3.47V9.68h3.57l.06,24.19h-3.58V29.11a10.4,10.4,0,0,1-3.7,3.4,10.66,10.66,0,0,1-5.33,1.36Zm.79-3.38a7.86,7.86,0,0,0,4.3-1.18,8.21,8.21,0,0,0,3-3.26,10.27,10.27,0,0,0,1.09-4.8A10.16,10.16,0,0,0,108,16.53a8.28,8.28,0,0,0-3-3.26,8.48,8.48,0,0,0-8.62,0,8.18,8.18,0,0,0-2.94,3.26,10.26,10.26,0,0,0-1.06,4.72A10.46,10.46,0,0,0,93.45,26a7.83,7.83,0,0,0,7.25,4.46Z" fill="#474747"/>
    <path id="Path_218" data-name="Path 218" d="M116.07,33.91V9.72h3.46l.1,4.11a9,9,0,0,1,3.44-3.28A9.67,9.67,0,0,1,128,9.21a7.45,7.45,0,0,1,6.08,2.47c1.37,1.65,2.05,4.15,2.06,7.51v14.7h-3.56V19.44c0-4.71-1.9-7-5.69-6.93a7.54,7.54,0,0,0-3.77.92,7.13,7.13,0,0,0-2.58,2.45,6.14,6.14,0,0,0-1,3.33v14.7Z" fill="#474747"/>
    <path id="Path_219" data-name="Path 219" d="M149,33.86a12.87,12.87,0,0,1-5.44-1.08,10,10,0,0,1-3.82-3l2.44-2.09a8.68,8.68,0,0,0,7.09,3.16,6.12,6.12,0,0,0,3.55-1,3.05,3.05,0,0,0,1.38-2.65,2.85,2.85,0,0,0-1.2-2.27,6.92,6.92,0,0,0-1.67-.85c-.73-.26-1.6-.54-2.62-.84a27.54,27.54,0,0,1-4.22-1.42,8.5,8.5,0,0,1-2.62-1.74,5.45,5.45,0,0,1-1.35-3.78,5.69,5.69,0,0,1,1.06-3.4,7.26,7.26,0,0,1,2.94-2.35,9.89,9.89,0,0,1,4.22-.87,12.14,12.14,0,0,1,4.9,1,11.3,11.3,0,0,1,3.86,2.69l-2.12,2.27a11.68,11.68,0,0,0-3-2.22,7.47,7.47,0,0,0-3.46-.85,5.88,5.88,0,0,0-3.55,1,3.05,3.05,0,0,0-1.37,2.6,2.63,2.63,0,0,0,1,2.13,6.84,6.84,0,0,0,1.78.92c.79.28,1.73.57,2.87.86A32.73,32.73,0,0,1,153,21.17a8.46,8.46,0,0,1,2.3,1.31,5.49,5.49,0,0,1,2.26,4.63,5.78,5.78,0,0,1-1.13,3.49,7.61,7.61,0,0,1-3.07,2.4,10.78,10.78,0,0,1-4.38.87Z" fill="#474747"/>
    <path id="Path_216" data-name="Path 216" d="M24.37,33.86,36.81,1.61h4.11l12.3,32.25h-4L45.92,25H31.5l-3.38,8.89ZM36,13.22l-3.14,8.2H44.57L41.38,13q-.54-1.47-1.32-3.66c-.51-1.46-1-2.8-1.36-4-.43,1.32-.88,2.66-1.34,4S36.43,12,36,13.22Z" fill="#474747"/>
    <path id="Path_217" data-name="Path 217" d="M56.85,33.87V1.61h3.51V33.87Z" fill="#474747"/>
    <g id="Group_44" data-name="Group 44">
      <path id="Rectangle_149" data-name="Rectangle 149" d="M2,22.58H7.26V33.87H2a2,2,0,0,1-2-2V24.59a2,2,0,0,1,2-2.01Z" fill="#fdb209"/>
      <path id="Rectangle_143" data-name="Rectangle 143" d="M8.47,11.29h5.24V22.58H8.47a2,2,0,0,1-2-2V13.3a2,2,0,0,1,2-2.01Z" fill="#fdb209"/>
      <path id="Rectangle_142" data-name="Rectangle 142" d="M14.92,0h5.24V11.29H14.92a2,2,0,0,1-2-2V2A2,2,0,0,1,14.92,0Z" fill="#fdb209"/>
      <path id="Rectangle_150" data-name="Rectangle 150" d="M7.26,22.58H12.5a2,2,0,0,1,2,2v3.63H7.26Z" fill="#ff9602"/>
      <path id="Rectangle_144" data-name="Rectangle 144" d="M13.71,11.29H19a2,2,0,0,1,2,2v3.63H13.71Z" fill="#ff9602"/>
      <path id="Rectangle_145" data-name="Rectangle 145" d="M20.16,0H25.4a2,2,0,0,1,2,2V5.64H20.16Z" fill="#ff9602"/>
      <path id="Rectangle_151" data-name="Rectangle 151" d="M7.26,28.22h7.25v3.63a2,2,0,0,1-2,2H7.26Z" fill="#fbd011"/>
      <path id="Rectangle_148" data-name="Rectangle 148" d="M13.71,16.93H21v3.63a2,2,0,0,1-2,2H13.71Z" fill="#fbd011"/>
      <path id="Rectangle_146" data-name="Rectangle 146" d="M20.16,5.64h7.26V9.27a2,2,0,0,1-2,2H20.16Z" fill="#fbd011"/>
    </g>
  </g>
</svg>
