<svg xmlns="http://www.w3.org/2000/svg" xmlns:xlink="http://www.w3.org/1999/xlink" width="149" height="149" viewBox="0 0 149 149">
  <defs>
    <filter id="Rectangle_557" x="0" y="0" width="149" height="149" filterUnits="userSpaceOnUse">
      <feOffset dx="1" dy="3" input="SourceAlpha"/>
      <feGaussianBlur stdDeviation="4.5" result="blur"/>
      <feFlood flood-opacity="0.161"/>
      <feComposite operator="in" in2="blur"/>
      <feComposite in="SourceGraphic"/>
    </filter>
  </defs>
  <g id="corporate" transform="translate(-1231.5 -2034.5)">
    <g transform="matrix(1, 0, 0, 1, 1231.5, 2034.5)" filter="url(#Rectangle_557)">
      <rect id="Rectangle_557-2" data-name="Rectangle 557" width="122" height="122" rx="5" transform="translate(12.5 10.5)" fill="#fbd011"/>
    </g>
    <g id="XMLID_1_" transform="translate(1267 2068.819)">
      <path id="Path_452" data-name="Path 452" d="M15.066,9.09l27.59,5.48a4.627,4.627,0,0,1,3.727,4.572V51.086a4.691,4.691,0,0,1-4.7,4.7H13.5a1.551,1.551,0,0,0,1.566-1.566V52.651H41.685a1.57,1.57,0,0,0,1.566-1.566V19.143a1.573,1.573,0,0,0-1.221-1.535L15.066,12.284Z" transform="translate(28.777 18.992)" fill="#474747" stroke="#474747" stroke-width="1"/>
      <path id="Path_453" data-name="Path 453" d="M24.829,14a1.566,1.566,0,0,1,0,3.132H18.566a1.566,1.566,0,1,1,0-3.132Z" transform="translate(36.238 29.458)" fill="#474747" stroke="#474747" stroke-width="1"/>
      <path id="Path_454" data-name="Path 454" d="M24.829,17a1.566,1.566,0,1,1,0,3.132H18.566a1.566,1.566,0,1,1,0-3.132Z" transform="translate(36.238 35.853)" fill="#474747" stroke="#474747" stroke-width="1"/>
      <path id="Path_455" data-name="Path 455" d="M24.829,20a1.566,1.566,0,1,1,0,3.132H18.566a1.566,1.566,0,1,1,0-3.132Z" transform="translate(36.238 42.248)" fill="#474747" stroke="#474747" stroke-width="1"/>
      <path id="Path_456" data-name="Path 456" d="M16.132,54.409a1.566,1.566,0,0,1-3.132,0V10.566a1.665,1.665,0,0,1,.564-1.221,1.646,1.646,0,0,1,1.315-.313l1.253.251V54.409Z" transform="translate(27.712 18.8)" fill="#474747" stroke="#474747" stroke-width="1"/>
      <path id="Path_457" data-name="Path 457" d="M20.461,23v1.566a1.551,1.551,0,0,0,1.566,1.566H9.5a1.551,1.551,0,0,0,1.566-1.566V23Z" transform="translate(20.251 48.643)" fill="#474747" stroke="#474747" stroke-width="1"/>
      <path id="Path_458" data-name="Path 458" d="M15.829,5a1.566,1.566,0,1,1,0,3.132H9.566A1.566,1.566,0,1,1,9.566,5Z" transform="translate(17.053 10.273)" fill="#474747" stroke="#474747" stroke-width="1"/>
      <path id="Path_459" data-name="Path 459" d="M17.395,9.566a1.551,1.551,0,0,1-1.566,1.566H9.566A1.566,1.566,0,0,1,9.566,8h6.263A1.551,1.551,0,0,1,17.395,9.566Z" transform="translate(17.053 16.668)" fill="#474747" stroke="#474747" stroke-width="1"/>
      <path id="Path_460" data-name="Path 460" d="M15.829,11a1.566,1.566,0,1,1,0,3.132H9.566a1.566,1.566,0,0,1,0-3.132Z" transform="translate(17.053 23.063)" fill="#474747" stroke="#474747" stroke-width="1"/>
      <path id="Path_461" data-name="Path 461" d="M15.829,14a1.566,1.566,0,1,1,0,3.132H9.566a1.566,1.566,0,0,1,0-3.132Z" transform="translate(17.053 29.458)" fill="#474747" stroke="#474747" stroke-width="1"/>
      <path id="Path_462" data-name="Path 462" d="M12.395,15.566a1.551,1.551,0,0,1-1.566,1.566H4.566a1.566,1.566,0,1,1,0-3.132h6.263A1.551,1.551,0,0,1,12.395,15.566Z" transform="translate(6.395 29.458)" fill="#474747" stroke="#474747" stroke-width="1"/>
      <path id="Path_463" data-name="Path 463" d="M10.829,5a1.566,1.566,0,0,1,0,3.132H4.566A1.566,1.566,0,1,1,4.566,5Z" transform="translate(6.395 10.273)" fill="#474747" stroke="#474747" stroke-width="1"/>
      <path id="Path_464" data-name="Path 464" d="M10.829,8a1.566,1.566,0,0,1,0,3.132H4.566A1.566,1.566,0,1,1,4.566,8Z" transform="translate(6.395 16.668)" fill="#474747" stroke="#474747" stroke-width="1"/>
      <path id="Path_465" data-name="Path 465" d="M10.829,11a1.566,1.566,0,0,1,0,3.132H4.566a1.566,1.566,0,1,1,0-3.132Z" transform="translate(6.395 23.063)" fill="#474747" stroke="#474747" stroke-width="1"/>
      <path id="Path_466" data-name="Path 466" d="M19.658,21.7a1.57,1.57,0,0,0-1.566-1.566H8.7A1.551,1.551,0,0,0,7.132,21.7V35.79H4V21.7A4.691,4.691,0,0,1,8.7,17h9.395a4.691,4.691,0,0,1,4.7,4.7V35.79H19.658Z" transform="translate(8.527 35.853)" fill="#474747" stroke="#474747" stroke-width="1"/>
      <path id="Path_467" data-name="Path 467" d="M7.132,23H22.79v1.566a1.551,1.551,0,0,1-1.566,1.566H5.566A1.551,1.551,0,0,1,4,24.566V23Z" transform="translate(8.527 48.643)" fill="#474747" stroke="#474747" stroke-width="1"/>
      <path id="Path_468" data-name="Path 468" d="M5.48.242,39.9,5.471a4.68,4.68,0,0,1,3.946,4.635V28.082l-1.253-.251a1.646,1.646,0,0,0-1.315.313,1.665,1.665,0,0,0-.564,1.221V10.106A1.583,1.583,0,0,0,39.4,8.54L4.979,3.342A.867.867,0,0,0,4.7,3.311a1.477,1.477,0,0,0-1,.376,1.5,1.5,0,0,0-.564,1.19v65.2A1.57,1.57,0,0,0,4.7,71.643h7.829v1.566a1.551,1.551,0,0,0,1.566,1.566H4.7a4.691,4.691,0,0,1-4.7-4.7V4.876a4.611,4.611,0,0,1,1.66-3.57A4.7,4.7,0,0,1,5.48.242Z" transform="translate(0 0)" fill="#474747" stroke="#474747" stroke-width="1"/>
    </g>
  </g>
</svg>
