<svg xmlns="http://www.w3.org/2000/svg" width="40" height="40" viewBox="0 0 40 40">
  <path id="insta-icon-black" d="M20,11.982A10.255,10.255,0,1,0,30.252,22.238,10.238,10.238,0,0,0,20,11.982Zm0,16.923a6.667,6.667,0,1,1,6.666-6.667A6.679,6.679,0,0,1,20,28.905ZM33.063,11.563a2.392,2.392,0,1,1-2.392-2.392A2.386,2.386,0,0,1,33.063,11.563Zm6.791,2.428c-.152-3.2-.883-6.043-3.23-8.381s-5.176-3.07-8.379-3.231c-3.3-.187-13.2-.187-16.5,0C8.55,2.53,5.713,3.262,3.366,5.6S.3,10.777.135,13.982c-.187,3.3-.187,13.2,0,16.5.152,3.2.883,6.043,3.23,8.381s5.176,3.07,8.379,3.231c3.3.187,13.2.187,16.5,0,3.2-.152,6.041-.884,8.379-3.231s3.07-5.177,3.23-8.381c.187-3.3.187-13.192,0-16.494ZM35.589,34.028a6.749,6.749,0,0,1-3.8,3.8c-2.632,1.044-8.879.8-11.788.8s-9.165.232-11.788-.8a6.749,6.749,0,0,1-3.8-3.8c-1.044-2.633-.8-8.881-.8-11.791s-.232-9.167.8-11.791a6.749,6.749,0,0,1,3.8-3.8c2.632-1.044,8.879-.8,11.788-.8s9.165-.232,11.788.8a6.749,6.749,0,0,1,3.8,3.8c1.044,2.633.8,8.881.8,11.791S36.633,31.4,35.589,34.028Z" transform="translate(0.005 -2.238)" fill="black"/>
</svg>
