<svg xmlns="http://www.w3.org/2000/svg" width="20" height="20" viewBox="0 0 20 20">
  <path id="insta-icon-white" d="M10,7.11a5.128,5.128,0,1,0,5.127,5.128A5.119,5.119,0,0,0,10,7.11Zm0,8.461a3.334,3.334,0,1,1,3.333-3.334A3.339,3.339,0,0,1,10,15.571ZM16.529,6.9a1.2,1.2,0,1,1-1.2-1.2A1.193,1.193,0,0,1,16.529,6.9Zm3.4,1.214a5.92,5.92,0,0,0-1.615-4.191,5.956,5.956,0,0,0-4.19-1.616c-1.651-.094-6.6-.094-8.25,0A5.947,5.947,0,0,0,1.68,3.919,5.939,5.939,0,0,0,.065,8.11c-.094,1.651-.094,6.6,0,8.252A5.92,5.92,0,0,0,1.68,20.552a5.963,5.963,0,0,0,4.19,1.616c1.651.094,6.6.094,8.25,0a5.917,5.917,0,0,0,4.19-1.616,5.959,5.959,0,0,0,1.615-4.191c.094-1.651.094-6.6,0-8.247ZM17.792,18.133a3.375,3.375,0,0,1-1.9,1.9c-1.316.522-4.439.4-5.894.4s-4.582.116-5.894-.4a3.375,3.375,0,0,1-1.9-1.9c-.522-1.317-.4-4.44-.4-5.9s-.116-4.583.4-5.9a3.375,3.375,0,0,1,1.9-1.9c1.316-.522,4.439-.4,5.894-.4s4.582-.116,5.894.4a3.375,3.375,0,0,1,1.9,1.9c.522,1.317.4,4.44.4,5.9S18.314,16.821,17.792,18.133Z" transform="translate(0.005 -2.238)" fill="#fafafa"/>
</svg>
