<svg xmlns="http://www.w3.org/2000/svg" width="1309.196" height="226.066" viewBox="0 0 1309.196 226.066">
  <g id="Group_29" data-name="Group 29" transform="translate(1309.196 226.066) rotate(180)">
    <path id="Rectangle_149" data-name="Rectangle 149" d="M12.421,69.559h32.3V0h-32.3A12.421,12.421,0,0,0,0,12.421V57.138A12.421,12.421,0,0,0,12.421,69.559Z" transform="translate(0 78.254)" fill="#fdb209"/>
    <path id="Rectangle_150" data-name="Rectangle 150" d="M0,34.779H32.3A12.421,12.421,0,0,0,44.716,22.358V0H0Z" transform="translate(131.665 191.287)" fill="#ff9602"/>
    <path id="Rectangle_151" data-name="Rectangle 151" d="M0,34.779H44.716V12.421A12.421,12.421,0,0,0,32.3,0H0Z" transform="translate(131.665 0)" fill="#fbd011"/>
    <path id="Rectangle_149-2" data-name="Rectangle 149" d="M12.421,69.559h32.3V0h-32.3A12.421,12.421,0,0,0,0,12.421V57.138A12.421,12.421,0,0,0,12.421,69.559Z" transform="translate(188.802 78.254)" fill="#fdb209"/>
    <path id="Rectangle_150-2" data-name="Rectangle 150" d="M0,34.779H32.3A12.421,12.421,0,0,0,44.716,22.358V0H0Z" transform="translate(320.467 191.287)" fill="#ff9602"/>
    <path id="Rectangle_151-2" data-name="Rectangle 151" d="M0,34.779H44.716V12.421A12.421,12.421,0,0,0,32.3,0H0Z" transform="translate(320.467 0)" fill="#fbd011"/>
    <path id="Rectangle_149-3" data-name="Rectangle 149" d="M12.421,69.559h32.3V0h-32.3A12.421,12.421,0,0,0,0,12.421V57.138A12.421,12.421,0,0,0,12.421,69.559Z" transform="translate(377.605 78.254)" fill="#fdb209"/>
    <path id="Rectangle_150-3" data-name="Rectangle 150" d="M0,34.779H32.3A12.421,12.421,0,0,0,44.716,22.358V0H0Z" transform="translate(509.27 191.287)" fill="#ff9602"/>
    <path id="Rectangle_151-3" data-name="Rectangle 151" d="M0,34.779H44.716V12.421A12.421,12.421,0,0,0,32.3,0H0Z" transform="translate(509.27 0)" fill="#fbd011"/>
    <path id="Rectangle_149-4" data-name="Rectangle 149" d="M12.421,69.559h32.3V0h-32.3A12.421,12.421,0,0,0,0,12.421V57.138A12.421,12.421,0,0,0,12.421,69.559Z" transform="translate(566.407 78.254)" fill="#fdb209"/>
  </g>
</svg>
