<svg xmlns="http://www.w3.org/2000/svg" width="40" height="40" viewBox="0 0 40 40">
  <path id="youtube-icon-black" d="M16.679,17.438l8.5,4.83-8.5,4.83ZM40,6.536V37.964a4.287,4.287,0,0,1-4.286,4.286H4.286A4.287,4.287,0,0,1,0,37.964V6.536A4.287,4.287,0,0,1,4.286,2.25H35.714A4.287,4.287,0,0,1,40,6.536ZM36.25,22.277a42.9,42.9,0,0,0-.679-7.875A4.075,4.075,0,0,0,32.7,11.509c-2.527-.687-12.7-.687-12.7-.687s-10.17,0-12.7.688A4.075,4.075,0,0,0,4.429,14.4a42.85,42.85,0,0,0-.679,7.875,42.9,42.9,0,0,0,.679,7.875A4.017,4.017,0,0,0,7.3,33c2.527.679,12.7.679,12.7.679s10.17,0,12.7-.688a4.017,4.017,0,0,0,2.875-2.848,42.771,42.771,0,0,0,.679-7.866Z" transform="translate(0 -2.25)" fill="#474747"/>
</svg>
