<svg xmlns="http://www.w3.org/2000/svg" width="20" height="20" viewBox="0 0 20 20">
  <path id="youtube-icon-white" d="M8.339,9.844l4.25,2.415-4.25,2.415ZM20,4.393V20.107a2.143,2.143,0,0,1-2.143,2.143H2.143A2.143,2.143,0,0,1,0,20.107V4.393A2.143,2.143,0,0,1,2.143,2.25H17.857A2.143,2.143,0,0,1,20,4.393Zm-1.875,7.871a21.451,21.451,0,0,0-.339-3.937,2.038,2.038,0,0,0-1.437-1.446A47.939,47.939,0,0,0,10,6.536a47.939,47.939,0,0,0-6.348.344A2.038,2.038,0,0,0,2.214,8.326a21.425,21.425,0,0,0-.339,3.937A21.451,21.451,0,0,0,2.214,16.2a2.008,2.008,0,0,0,1.438,1.424A48.564,48.564,0,0,0,10,17.964a47.939,47.939,0,0,0,6.348-.344A2.008,2.008,0,0,0,17.786,16.2a21.385,21.385,0,0,0,.339-3.933Z" transform="translate(0 -2.25)" fill="#fafafa"/>
</svg>
