<svg xmlns="http://www.w3.org/2000/svg" xmlns:xlink="http://www.w3.org/1999/xlink" width="149" height="149" viewBox="0 0 149 149">
  <defs>
    <filter id="Rectangle_558" x="0" y="0" width="149" height="149" filterUnits="userSpaceOnUse">
      <feOffset dx="1" dy="3" input="SourceAlpha"/>
      <feGaussianBlur stdDeviation="4.5" result="blur"/>
      <feFlood flood-opacity="0.161"/>
      <feComposite operator="in" in2="blur"/>
      <feComposite in="SourceGraphic"/>
    </filter>
  </defs>
  <g id="medium-business" transform="translate(-1369.5 -2034.5)">
    <g transform="matrix(1, 0, 0, 1, 1369.5, 2034.5)" filter="url(#Rectangle_558)">
      <rect id="Rectangle_558-2" data-name="Rectangle 558" width="122" height="122" rx="5" transform="translate(12.5 10.5)" fill="#fbd011"/>
    </g>
    <g id="briefcase" transform="translate(1401 2037)">
      <g id="Group_549" data-name="Group 549" transform="translate(0 32)">
        <path id="Path_451" data-name="Path 451" d="M80.75,46.231H65.167V41.962A9.951,9.951,0,0,0,55.25,32H29.75a9.951,9.951,0,0,0-9.917,9.962v4.269H4.25A4.26,4.26,0,0,0,0,50.5V78.962a4.268,4.268,0,0,0,2.833,4.007v18.762A4.26,4.26,0,0,0,7.083,106H77.917a4.26,4.26,0,0,0,4.25-4.269V82.969A4.268,4.268,0,0,0,85,78.962V50.5A4.26,4.26,0,0,0,80.75,46.231ZM22.667,41.962a7.108,7.108,0,0,1,7.083-7.115h25.5a7.108,7.108,0,0,1,7.083,7.115v4.269h-2.89l.057-4.269a4.268,4.268,0,0,0-4.25-4.269H29.7a4.268,4.268,0,0,0-4.25,4.269v.014l.038,4.255H22.667Zm34-.02-.057,4.289H28.319l-.044-4.269a1.42,1.42,0,0,1,1.417-1.423H55.25A1.42,1.42,0,0,1,56.667,41.942Zm22.667,59.789a1.42,1.42,0,0,1-1.417,1.423H7.083a1.42,1.42,0,0,1-1.417-1.423v-18.5h9.917V87.5A1.42,1.42,0,0,0,17,88.923h5.667A1.42,1.42,0,0,0,24.083,87.5V83.231H60.917V87.5a1.42,1.42,0,0,0,1.417,1.423H68A1.42,1.42,0,0,0,69.417,87.5V83.231h9.917ZM18.417,86.077V78.962a1.39,1.39,0,0,1,.435-1.013,1.345,1.345,0,0,1,.982-.41,1.42,1.42,0,0,1,1.417,1.423v7.115Zm45.333,0V78.962a1.42,1.42,0,0,1,1.417-1.423,1.437,1.437,0,0,1,1.417,1.423v7.115Zm18.417-7.115a1.42,1.42,0,0,1-1.417,1.423H69.417V78.962a4.25,4.25,0,1,0-8.5,0v1.423H24.083V78.962a4.25,4.25,0,1,0-8.5,0v1.423H4.25a1.42,1.42,0,0,1-1.417-1.423V50.5A1.42,1.42,0,0,1,4.25,49.077h76.5A1.42,1.42,0,0,1,82.167,50.5Z" transform="translate(0 -32)" fill="#474747" stroke="#474747" stroke-width="1"/>
      </g>
    </g>
  </g>
</svg>
