<svg xmlns="http://www.w3.org/2000/svg" xmlns:xlink="http://www.w3.org/1999/xlink" width="149" height="149" viewBox="0 0 149 149">
  <defs>
    <filter id="Rectangle_556" x="0" y="0" width="149" height="149" filterUnits="userSpaceOnUse">
      <feOffset dx="1" dy="3" input="SourceAlpha"/>
      <feGaussianBlur stdDeviation="4.5" result="blur"/>
      <feFlood flood-opacity="0.161"/>
      <feComposite operator="in" in2="blur"/>
      <feComposite in="SourceGraphic"/>
    </filter>
  </defs>
  <g id="small-business" transform="translate(-1093.5 -2034.5)">
    <g transform="matrix(1, 0, 0, 1, 1093.5, 2034.5)" filter="url(#Rectangle_556)">
      <rect id="Rectangle_556-2" data-name="Rectangle 556" width="122" height="122" rx="5" transform="translate(12.5 10.5)" fill="#fbd011"/>
    </g>
    <g id="shop" transform="translate(1125 2037.95)">
      <g id="Group_550" data-name="Group 550" transform="translate(0 31.05)">
        <path id="Path_469" data-name="Path 469" d="M265.4,263.75H253.9a5.709,5.709,0,0,0-5.7,5.7v8.815a5.709,5.709,0,0,0,5.7,5.7H265.4a5.709,5.709,0,0,0,5.7-5.7v-8.815A5.709,5.709,0,0,0,265.4,263.75Zm1.556,14.518a1.56,1.56,0,0,1-1.556,1.556H253.9a1.56,1.56,0,0,1-1.556-1.556v-8.815A1.56,1.56,0,0,1,253.9,267.9H265.4a1.56,1.56,0,0,1,1.556,1.556Z" transform="translate(-205.014 -223.421)" fill="#474747"/>
        <path id="Path_470" data-name="Path 470" d="M85,55.3a1.925,1.925,0,0,0-.278-1.022L72.078,32.106a2.1,2.1,0,0,0-1.806-1.056H14.711A2.061,2.061,0,0,0,12.9,32.106L.278,54.274A2.1,2.1,0,0,0,0,55.3,12.156,12.156,0,0,0,7.295,66.413v36.558a2.087,2.087,0,0,0,2.084,2.078H75.6a2.087,2.087,0,0,0,2.084-2.078v-36.3a.913.913,0,0,0-.017-.225A12.19,12.19,0,0,0,85,55.3ZM15.927,35.224H69.056l9.883,17.335H6.062ZM60.493,56.7a8.014,8.014,0,0,1-15.77,0Zm-20.2,0a8.025,8.025,0,0,1-15.788,0Zm-35.987,0H20.1a8.025,8.025,0,0,1-15.788,0Zm30.707,44.2H23.03V78.467A2.964,2.964,0,0,1,26,75.505h6.062a2.964,2.964,0,0,1,2.97,2.961v22.427Zm38.505,0H39.183V78.467a7.139,7.139,0,0,0-7.138-7.118H25.983a7.139,7.139,0,0,0-7.138,7.118v22.444H11.463V67.435c.243.017.486.017.729.017A12.186,12.186,0,0,0,22.3,62.084a12.2,12.2,0,0,0,20.217,0,12.168,12.168,0,0,0,20.182,0,12.186,12.186,0,0,0,10.108,5.369c.243,0,.469-.017.712-.017v33.458Zm-.712-37.6a8,8,0,0,1-7.885-6.581H80.71A8.049,8.049,0,0,1,72.808,63.3Z" transform="translate(0 -31.05)" fill="#474747"/>
      </g>
    </g>
  </g>
</svg>
